<svg width="172" height="113" viewBox="0 0 172 113" fill="none" xmlns="http://www.w3.org/2000/svg">
<path d="M76.0225 43.532C75.6555 42.4353 75.7403 41.2381 76.2583 40.2037C76.7763 39.1693 77.685 38.3824 78.7847 38.016L87.5305 35.109C88.1878 34.8902 88.8879 34.8303 89.573 34.9342C90.2581 35.0382 90.9086 35.303 91.4709 35.7068C92.0333 36.1107 92.4913 36.642 92.8072 37.257C93.1232 37.8721 93.288 38.5532 93.2881 39.2442V68.3139C93.2881 69.4704 92.8274 70.5795 92.0074 71.3973C91.1873 72.215 90.075 72.6744 88.9153 72.6744C87.7555 72.6744 86.6432 72.215 85.8232 71.3973C85.0031 70.5795 84.5424 69.4704 84.5424 68.3139V45.2907L81.5542 46.2863C80.4544 46.6523 79.2538 46.5678 78.2165 46.0512C77.1791 45.5347 76.39 44.6286 76.0225 43.532ZM172 120.64C172 121.796 171.539 122.905 170.719 123.723C169.899 124.541 168.787 125 167.627 125H4.37288C3.21312 125 2.10086 124.541 1.28079 123.723C0.460713 122.905 0 121.796 0 120.64C0 119.483 0.460713 118.374 1.28079 117.556C2.10086 116.738 3.21312 116.279 4.37288 116.279H11.661V45.0581C11.661 42.3597 12.736 39.7718 14.6495 37.8637C16.563 35.9557 19.1583 34.8837 21.8644 34.8837H52.4746V10.1744C52.4746 7.476 53.5496 4.88809 55.4631 2.98002C57.3766 1.07195 59.9719 0 62.678 0H109.322C112.028 0 114.623 1.07195 116.537 2.98002C118.45 4.88809 119.525 7.476 119.525 10.1744V63.9535H150.136C152.842 63.9535 155.437 65.0254 157.35 66.9335C159.264 68.8416 160.339 71.4295 160.339 74.1279V116.279H167.627C168.787 116.279 169.899 116.738 170.719 117.556C171.539 118.374 172 119.483 172 120.64ZM119.525 72.6744V116.279H151.593V74.1279C151.593 73.7424 151.44 73.3727 151.166 73.1001C150.893 72.8276 150.522 72.6744 150.136 72.6744H119.525ZM61.2203 116.279H110.78V10.1744C110.78 9.78893 110.626 9.41923 110.353 9.14665C110.079 8.87406 109.709 8.72093 109.322 8.72093H62.678C62.2914 8.72093 61.9206 8.87406 61.6473 9.14665C61.3739 9.41923 61.2203 9.78893 61.2203 10.1744V116.279ZM20.4068 116.279H52.4746V43.6047H21.8644C21.4778 43.6047 21.1071 43.7578 20.8337 44.0304C20.5604 44.3029 20.4068 44.6726 20.4068 45.0581V116.279Z" fill="white"/>
</svg>
