<svg width="152" height="135" viewBox="0 0 152 135" fill="none" xmlns="http://www.w3.org/2000/svg">
<path d="M113.393 0C105.678 0 99.4927 6.24391 99.4927 14.0313C99.4927 21.8291 105.678 28.0695 113.393 28.0695C121.107 28.0695 127.293 21.8291 127.293 14.0313C127.293 6.24391 121.107 0 113.393 0ZM93.6895 18.2301C75.2025 24.8774 55.9162 30.4899 34.962 34.103C35.5875 35.7166 35.935 37.4705 35.935 39.2945C35.935 40.9783 35.657 42.5919 35.101 44.0652C68.5305 48.5902 98.624 56.6933 124.686 69.2863C125.242 67.2167 126.25 65.3225 127.571 63.7089C102.829 51.6771 74.6117 43.6442 43.6495 38.9087C62.1365 35.1904 79.3725 29.9988 95.9135 24.1057C94.871 22.2816 94.1065 20.3208 93.6895 18.2301ZM127.675 28.3501C126.181 29.8585 124.478 31.1564 122.601 32.1386C127.918 40.838 131.636 49.8881 133.652 59.4294C135.146 58.9032 136.779 58.5875 138.447 58.5875C138.934 58.5875 139.42 58.6226 139.872 58.6576C137.683 48.029 133.548 37.9265 127.675 28.3501ZM21.6875 31.2266C17.236 31.2266 13.695 34.8045 13.695 39.2945C13.695 43.7845 17.236 47.3625 21.6875 47.3625C26.1355 47.3625 29.68 43.7845 29.68 39.2945C29.68 34.8045 26.1355 31.2266 21.6875 31.2266ZM33.7457 46.8714C32.6337 48.6955 31.1395 50.2389 29.3672 51.3965C40.522 62.8319 52.337 74.513 71.2757 79.5993C71.2757 79.2836 71.241 78.9328 71.241 78.6171C71.241 76.758 71.6927 75.0041 72.4572 73.4255C55.256 68.69 44.6572 58.0613 33.7457 46.8714ZM13.9382 51.3263C6.37663 75.1093 4.51403 99.4535 2.71745 123.587C3.45763 123.412 4.2256 123.342 5.01095 123.342C6.39748 123.342 7.72493 123.587 8.95508 124.078C10.7586 100.085 12.6282 76.3721 19.8284 53.5362C17.6808 53.2556 15.6792 52.4839 13.9382 51.3263ZM138.447 64.9016C133.999 64.9016 130.455 68.4795 130.455 72.9695C130.455 77.4595 133.999 81.0375 138.447 81.0375C142.895 81.0375 146.44 77.4595 146.44 72.9695C146.44 68.4795 142.895 64.9016 138.447 64.9016ZM124.2 72.6889C114.331 74.7234 104.531 76.4773 94.315 76.3721C94.454 77.1087 94.5235 77.8454 94.5235 78.6171C94.5235 80.0202 94.2802 81.3883 93.7937 82.6511C104.914 82.8616 115.339 81.0024 125.486 78.8626C124.652 77.0737 124.2 75.0742 124.2 72.9695V72.6889ZM82.8822 73.18C79.859 73.18 77.496 75.5653 77.496 78.6171C77.496 81.6689 79.859 84.0542 82.8822 84.0542C85.9055 84.0542 88.2685 81.6689 88.2685 78.6171C88.2685 75.5653 85.9055 73.18 82.8822 73.18ZM125.694 79.3538C106.373 95.4546 88.6507 112.467 75.967 132.216C78.0172 132.848 79.859 133.97 81.388 135.409C93.5157 116.642 110.647 100.05 129.621 84.2296C127.988 82.9317 126.632 81.248 125.694 79.3538ZM72.8742 84.6155C56.229 100.892 34.7882 113.8 12.8089 126.534C14.324 128.007 15.436 129.901 15.9537 132.006C38.0547 119.238 60.0167 106.083 77.3917 88.9652C75.5152 87.9479 73.9515 86.4395 72.8742 84.6155ZM135.216 86.9657C135.667 97.0682 137.301 107.065 140.185 116.852C141.853 115.66 143.903 114.888 146.092 114.748C143.451 105.627 141.957 96.4017 141.505 87.0008C140.498 87.2463 139.49 87.3516 138.447 87.3516C137.335 87.3516 136.258 87.2112 135.216 86.9657ZM146.788 121.027C143.868 121.027 141.575 123.342 141.575 126.288C141.575 129.235 143.868 131.55 146.788 131.55C149.706 131.55 152 129.235 152 126.288C152 123.342 149.706 121.027 146.788 121.027ZM5.01095 129.656C2.20662 129.656 0 131.901 0 134.707C0 137.548 2.20662 139.793 5.01095 139.793C7.81528 139.793 10.0219 137.548 10.0219 134.707C10.0219 131.901 7.81528 129.656 5.01095 129.656ZM135.841 129.761C120.308 138.355 103.246 141.196 85.4885 142.249C85.8012 143.441 85.975 144.669 85.975 145.932C85.975 146.844 85.8707 147.721 85.7317 148.563C104.184 147.475 122.497 144.494 139.351 135.058C137.718 133.655 136.501 131.831 135.841 129.761ZM16.2005 133.409C16.2491 133.83 16.2769 134.251 16.2769 134.707C16.2769 136.461 15.8773 138.11 15.1684 139.618L57.5147 146.739C57.48 146.458 57.48 146.213 57.48 145.932C57.48 144.038 57.8622 142.214 58.5225 140.53L16.2005 133.409ZM71.7275 137.864C67.2795 137.864 63.735 141.442 63.735 145.932C63.735 150.422 67.2795 154 71.7275 154C76.1755 154 79.72 150.422 79.72 145.932C79.72 141.442 76.1755 137.864 71.7275 137.864Z" fill="white"/>
</svg>
