<svg width="125" height="116" viewBox="0 0 125 116" fill="none" xmlns="http://www.w3.org/2000/svg">
<path d="M0.000358582 6.31707L6.31768 0.000107224L56.7312 50.4152C57.1576 50.8271 57.4977 51.3197 57.7317 51.8643C57.9657 52.409 58.0889 52.9948 58.094 53.5876C58.0992 54.1803 57.9862 54.7682 57.7617 55.3168C57.5372 55.8655 57.2057 56.3639 56.7865 56.7831C56.3674 57.2022 55.8689 57.5337 55.3202 57.7582C54.7715 57.9827 54.1837 58.0956 53.5909 58.0905C52.9981 58.0853 52.4122 57.9622 51.8675 57.7282C51.3228 57.4942 50.8302 57.1541 50.4184 56.7277L34.9934 41.3036C32.8122 44.5633 31.535 48.3433 31.2922 52.2579C31.0494 56.1724 31.8498 60.0813 33.6115 63.5855C35.3732 67.0897 38.0332 70.0637 41.3201 72.2039C44.6069 74.3441 48.4028 75.574 52.3203 75.7679C54.5 71.2693 57.72 67.3547 61.7137 64.3479C65.7073 61.3412 70.3598 59.3289 75.2858 58.4777C76.0715 55.2124 76.1015 51.8109 75.3735 48.5322C74.6454 45.2536 73.1786 42.1843 71.0847 39.5584C68.9908 36.9325 66.3251 34.8191 63.2907 33.3793C60.2563 31.9395 56.9333 31.2112 53.5748 31.2501V22.3215C58.0945 22.2919 62.5662 23.2492 66.6775 25.1267C70.7889 27.0042 74.4407 29.7566 77.3781 33.1916C80.3154 36.6266 82.4674 40.6614 83.6838 45.0142C84.9001 49.367 85.1515 53.9329 84.4203 58.3929C88.9638 59.0033 93.3138 60.6199 97.1531 63.125C98.607 56.606 98.5749 49.8433 97.0593 43.3384C95.5438 36.8334 92.5835 30.7529 88.398 25.5476C84.2125 20.3423 78.9091 16.1457 72.8809 13.2688C66.8527 10.3919 60.2543 8.90855 53.5748 8.92867V0.000107224C62.0053 -0.0167747 70.3204 1.96005 77.8413 5.76923C85.3621 9.57841 91.8756 15.112 96.85 21.9182C101.824 28.7244 105.119 36.6105 106.464 44.9325C107.809 53.2546 107.168 61.7768 104.591 69.8036C107.496 73.3282 109.58 77.4546 110.694 81.884C115.558 83.7518 119.615 87.2637 122.159 91.8103C124.704 96.3568 125.576 101.651 124.625 106.773C123.673 111.896 120.958 116.524 116.95 119.853C112.942 123.182 107.895 125.003 102.685 125H58.0393C52.3799 124.986 46.938 122.819 42.8186 118.938C38.6992 115.058 36.2111 109.755 35.8595 104.107C25.3975 100.414 16.3346 93.5743 9.91437 84.5264C3.49412 75.4784 0.0310669 64.6656 0.000358582 53.5715C-0.0463943 40.8986 4.45039 28.6285 12.6752 18.9867L0.000358582 6.31707ZM58.0393 116.071H102.685C105.96 116.071 109.121 114.869 111.569 112.693C114.017 110.517 115.581 107.518 115.964 104.265C116.347 101.013 115.523 97.7323 113.648 95.0469C111.773 92.3615 108.978 90.4576 105.792 89.6964L102.854 88.9956L102.412 86.0045C101.635 80.7119 98.9795 75.8756 94.9312 72.3787C90.8828 68.8818 85.7117 66.9576 80.362 66.9576C75.0123 66.9576 69.8412 68.8818 65.7928 72.3787C61.7445 75.8756 59.0891 80.7119 58.3117 86.0045L57.8697 88.9956L54.932 89.692C51.742 90.4493 48.9415 92.3521 47.0626 95.0389C45.1838 97.7257 44.3576 101.009 44.7412 104.265C45.1247 107.521 46.6912 110.522 49.1429 112.699C51.5946 114.876 54.7607 116.076 58.0393 116.071ZM8.92944 53.5715C8.95422 62.507 11.6507 71.2309 16.6723 78.6221C21.694 86.0133 28.8113 91.7341 37.1096 95.0491C38.7935 90.4311 41.9663 86.5046 46.1279 83.8884C41.115 82.6636 36.4839 80.2152 32.6491 76.7623C28.8142 73.3093 25.8953 68.9596 24.1534 64.1023C22.4116 59.245 21.9011 54.0317 22.6678 48.9288C23.4345 43.826 25.4543 38.9928 28.5466 34.8617L19.0327 25.3438C12.4787 33.2886 8.90523 43.2726 8.92944 53.5715Z" fill="white"/>
</svg>
